<svg id="e58V4ldqT7a1" xmlns="http://www.w3.org/2000/svg" xmlns:xlink="http://www.w3.org/1999/xlink" viewBox="0 0 430 310" shape-rendering="geometricPrecision" text-rendering="geometricPrecision"><path d="M19.766174,45.282992q402.56383,0,402.56383.349145l.349145,20.948681h-402.912975q0-21.297826,0-21.297826Z" transform="translate(.000003 0.000001)" fill="#318175" stroke="#318175" stroke-width="1.152"/><path d="M19.766177,72.839438h402.56383l.349145,6.407267h-87.401584l-9.170481,14.816804-306.340913-.000002.000003-21.224069Z" transform="translate(.000003 0.000003)" fill="#318175" stroke="#318175" stroke-width="1.152"/><path d="M399.890279,83.451473v10.612037l22.439728-.000001.000002-10.612036h-22.43973Z" transform="translate(.000003 0.000002)" fill="#475653" stroke="#fff" stroke-width="1.152"/><path d="M7.03147,124.263843h118.385513l11.154413-22.457553h-116.80522L7.03147,124.263843Z" transform="translate(.000001 0.000001)" fill="#318175" stroke="#318175" stroke-width="1.152"/><path d="M7.078018,130.407125l-.608006,24.016248l103.209067-.456004l11.248116-22.800236-113.849177-.760008Z" transform="translate(.000001 0)" fill="#318175" stroke="#318175" stroke-width="1.152"/><path d="M6.3603,159c.34801,11.749343.096497,26.018711.110752,24.227419h88.939169L106.3603,159l-99.889248-.000003" transform="translate(.000002 0.000003)" fill="#318175" stroke="#318175" stroke-width="1.152"/><path d="M5.923179,190.955063h85.460233v22.943376h-85.460233v-22.943376Z" transform="translate(0 0.591784)" fill="#318175" stroke="#318175" stroke-width="1.152"/><path d="M5.923179,190.955063h85.460233v22.943376h-85.460233v-22.943376Z" transform="translate(0 30.314958)" fill="#318175" stroke="#318175" stroke-width="1.152"/><path d="M5.923179,190.955063h85.460233v22.943376h-85.460233v-22.943376Z" transform="translate(0 60.638409)" fill="#318175" stroke="#318175" stroke-width="1.152"/><path d="M63.698604,304.917141v-15.733741h27.684808v-7.209635h-85.460233v22.943376h57.775425" fill="#318175" stroke="#318175" stroke-width="1.152"/><path d="M100.976033,281.973765h15.534261v7.209635h-15.534263l.000002-7.209635Z" transform="translate(.000002 0)" fill="#475653" stroke="#475653" stroke-width="1.152"/><path d="" fill="#318175" stroke="#318175" stroke-width="1.152"/><path d="M23.991745,12.672145v19.831343l12.605969.153732-.000001-8.301493h27.100889l-.000001-11.683582h-39.706856Z" transform="translate(.000005 0)" fill="#318175" stroke="#318175" stroke-width="1.152"/><path d="M36.597718,17.284085h13v4h-13v-4Z" transform="translate(.747461 0.000012)" fill="#fff" stroke="#318175" stroke-width="1.152"/><path d="M71.801434,12.672145l40-.000005v4.611957h-10.825399v15.373118l-17.3226.000004v-15.373124l-11.852001-.000001v-4.611949Z" transform="translate(0 0.000005)" fill="#318175" stroke="#318175" stroke-width="1.152"/><path d="M71.801434,12.672145l40-.000005v4.611957l-10.825399-.000005v15.373127h-17.3226v-15.373124l-11.852001-.000001v-4.611949Z" transform="translate(49.125762 0.000005)" fill="#318175" stroke="#318175" stroke-width="1.152"/><path d="" fill="#318175" stroke="#318175" stroke-width="1.152"/></svg>
